<svg xmlns="http://www.w3.org/2000/svg" viewBox="0 0 512 512"><g id="Calque_2" data-name="Calque 2"><g id="Calque_1-2" data-name="Calque 1"><path d="M240,0h32c8.72,1.14,17.48,2,26.14,3.46,48.09,8.22,90.63,28.32,127.06,60.74,44.55,39.63,72.4,88.86,82.87,147.69,1.66,9.31,2.64,18.74,3.93,28.11v32a29.21,29.21,0,0,0-.83,3.86c-3,39.49-14.34,76.47-35,110.25-40.64,66.57-99.32,107.51-176.13,122-9.28,1.75-18.72,2.63-28.08,3.92H240c-6.25-.77-12.51-1.44-18.73-2.33-50.76-7.29-95.65-27.55-134.07-61.56C42.53,408.57,14.66,359.37,4,300.6c-1.72-9.46-2.68-19.06-4-28.6V240c1.12-8.55,2-17.16,3.4-25.66,9-53.25,32.42-99.33,70.35-137.77C112,37.75,158.12,13.39,211.91,3.93,221.22,2.3,230.63,1.29,240,0Zm15.85,480c123.27.13,223.77-100.13,224.15-223.61S379.73,32.14,256.15,32C132.87,31.87,32.36,132.13,32,255.59S132.31,479.86,255.85,480Z" style="fill:#fff"/><path d="M272,240h87.68c2.83,0,5.67-.08,8.5,0a16.07,16.07,0,0,1,15.8,16A15.9,15.9,0,0,1,368,272c-21.65.14-43.31.05-65,.05H272v5.61q0,45,0,90c0,7.75-4.45,13.57-11.52,15.72-6.54,2-13.92-.3-17.44-6.34a22.65,22.65,0,0,1-2.88-10.81c-.23-29.32-.13-58.64-.13-88V272h-5.5q-44.73,0-89.46,0c-9.59,0-16.68-6.52-17-15.34-.36-9.51,6.89-16.61,17.2-16.62q44.47-.08,89,0H240v-5.86c0-29.82,0-59.64,0-89.46,0-8.89,5.92-15.65,14.16-16.59a16.06,16.06,0,0,1,17.4,12.53,30.78,30.78,0,0,1,.39,6.45q0,43.49,0,87Z" style="fill:#fff"/></g></g></svg>